<svg width="16" height="16" viewBox="0 0 16 16" fill="none" xmlns="http://www.w3.org/2000/svg">
<path d="M5.71427 13.9884L0.571411 15.4284L2.01141 10.2856L11.4286 0.91417C11.535 0.805317 11.6622 0.718827 11.8024 0.659779C11.9427 0.60073 12.0935 0.570312 12.2457 0.570312C12.3979 0.570312 12.5487 0.60073 12.689 0.659779C12.8292 0.718827 12.9564 0.805317 13.0628 0.91417L15.0857 2.94845C15.1928 3.05469 15.2778 3.18111 15.3359 3.32036C15.3939 3.45963 15.4238 3.60901 15.4238 3.75988C15.4238 3.91075 15.3939 4.06013 15.3359 4.1994C15.2778 4.33867 15.1928 4.46507 15.0857 4.57131L5.71427 13.9884Z" stroke="white" stroke-linecap="round" stroke-linejoin="round"/>
</svg>
