<svg width="18" height="18" viewBox="0 0 18 18" fill="none" xmlns="http://www.w3.org/2000/svg">
<path d="M4.08105 2.64844H9.14355C10.0518 2.64844 10.8223 2.78613 11.4551 3.06152C12.0879 3.33105 12.5625 3.71191 12.8789 4.2041C13.2012 4.69043 13.3623 5.26172 13.3623 5.91797C13.3623 6.39844 13.2627 6.82617 13.0635 7.20117C12.8701 7.57617 12.6006 7.88672 12.2549 8.13281C11.915 8.37305 11.5195 8.54297 11.0684 8.64258V8.76562C11.5547 8.78906 12.0117 8.92969 12.4395 9.1875C12.8672 9.44531 13.21 9.80566 13.4678 10.2686C13.7256 10.7256 13.8545 11.2588 13.8545 11.8682C13.8545 12.5479 13.6875 13.1514 13.3535 13.6787C13.0195 14.2061 12.5215 14.6221 11.8594 14.9268C11.2031 15.2256 10.4092 15.375 9.47754 15.375H4.08105V2.64844ZM8.94141 13.2041C9.43945 13.2041 9.84961 13.1396 10.1719 13.0107C10.5 12.876 10.7402 12.6914 10.8926 12.457C11.0449 12.2168 11.1211 11.9326 11.1211 11.6045C11.1211 11.2529 11.0361 10.9365 10.8662 10.6553C10.6963 10.374 10.4502 10.1602 10.1279 10.0137C9.81152 9.86133 9.43945 9.78516 9.01172 9.78516H6.71777V13.2041H8.94141ZM8.74805 7.9834C9.11719 7.9834 9.44824 7.91602 9.74121 7.78125C10.04 7.64648 10.2715 7.45605 10.4355 7.20996C10.6055 6.96387 10.6904 6.67383 10.6904 6.33984C10.6904 6.02344 10.6172 5.75098 10.4707 5.52246C10.3242 5.28809 10.1074 5.10938 9.82031 4.98633C9.53906 4.85742 9.19922 4.79297 8.80078 4.79297H6.71777V7.9834H8.74805Z" fill="black"/>
</svg>
