<svg width="12" height="12" viewBox="0 0 12 12" fill="none" xmlns="http://www.w3.org/2000/svg">
<path fill-rule="evenodd" clip-rule="evenodd" d="M5.5 10.9843C2.35665 10.7796 1 8.62637 1 6.00021C1 3.40754 2.97334 1.27576 5.5 1.0249V2.79289C5.2087 2.89585 5 3.17366 5 3.50021C5 3.82677 5.2087 4.10458 5.5 4.20754V10.9843ZM3.5 5.75021C3.91421 5.75021 4.25 5.41443 4.25 5.00021C4.25 4.586 3.91421 4.25021 3.5 4.25021C3.08579 4.25021 2.75 4.586 2.75 5.00021C2.75 5.41443 3.08579 5.75021 3.5 5.75021Z" fill="black"/>
<path fill-rule="evenodd" clip-rule="evenodd" d="M5.5 1.02469V2.79268C5.57819 2.76504 5.66234 2.75 5.75 2.75C6.16421 2.75 6.5 3.08579 6.5 3.5C6.5 3.91421 6.16421 4.25 5.75 4.25C5.66234 4.25 5.57819 4.23496 5.5 4.20732V10.9841C5.66191 10.9946 5.82855 11 6 11C7.89889 11 7.89329 9.901 7.88787 8.83891C7.88472 8.22304 7.88164 7.61958 8.25 7.25C8.66711 6.83152 9.17342 6.71975 9.62101 6.62094C10.242 6.48385 10.75 6.3717 10.75 5.5C10.75 2.73858 8.76142 1 6 1C5.83125 1 5.66445 1.00836 5.5 1.02469ZM8.5 5.25C8.91421 5.25 9.25 4.91421 9.25 4.5C9.25 4.08579 8.91421 3.75 8.5 3.75C8.08579 3.75 7.75 4.08579 7.75 4.5C7.75 4.91421 8.08579 5.25 8.5 5.25Z" fill="black"/>
</svg>
