<svg width="18" height="18" viewBox="0 0 18 18" fill="none" xmlns="http://www.w3.org/2000/svg">
<path fill-rule="evenodd" clip-rule="evenodd" d="M11.7246 5.84766C11.6777 5.4375 11.5312 5.08301 11.2852 4.78418C11.0391 4.48535 10.7109 4.25977 10.3008 4.10742C9.89062 3.95508 9.42773 3.87891 8.91211 3.87891C8.36133 3.87891 7.875 3.9668 7.45312 4.14258C7.03125 4.31836 6.70312 4.56445 6.46875 4.88086C6.23438 5.19727 6.11719 5.56055 6.11719 5.9707C6.11719 6.55664 6.35742 7.00488 6.83789 7.31543C7.31836 7.62598 7.89844 7.86914 8.57812 8.04492L9.31641 8.25H11.7832H14.25V9H11.484H6.81585H3.75V8.25H5.59028C5.53222 8.2003 5.47641 8.14952 5.42285 8.09766C4.86621 7.55859 4.58789 6.87305 4.58789 6.04102C4.58789 5.33789 4.78125 4.7168 5.16797 4.17773C5.55469 3.63867 6.0791 3.21973 6.74121 2.9209C7.40332 2.62207 8.14453 2.47266 8.96484 2.47266C9.77344 2.47266 10.5 2.61914 11.1445 2.91211C11.7891 3.20508 12.2988 3.60645 12.6738 4.11621C13.0488 4.62598 13.248 5.20312 13.2715 5.84766H11.7246ZM11.1373 10.5H13.1624C13.3523 10.9017 13.4473 11.3724 13.4473 11.9121C13.4473 12.6035 13.2656 13.2305 12.9023 13.793C12.5391 14.3555 12.0088 14.7979 11.3115 15.1201C10.6143 15.4424 9.78516 15.6035 8.82422 15.6035C7.92188 15.6035 7.13379 15.457 6.45996 15.1641C5.78613 14.8711 5.25879 14.458 4.87793 13.9248C4.49707 13.3916 4.2832 12.7734 4.23633 12.0703H5.85352C5.90039 12.5273 6.06152 12.9111 6.33691 13.2217C6.6123 13.5322 6.9668 13.7666 7.40039 13.9248C7.83398 14.083 8.30859 14.1621 8.82422 14.1621C9.41016 14.1621 9.9375 14.0684 10.4062 13.8809C10.875 13.6934 11.2412 13.4238 11.5049 13.0723C11.7686 12.7207 11.9004 12.3223 11.9004 11.877C11.9004 11.4902 11.792 11.165 11.5752 10.9014C11.452 10.7515 11.306 10.6177 11.1373 10.5Z" fill="black"/>
</svg>
