<svg width="18" height="18" viewBox="0 0 18 18" fill="none" xmlns="http://www.w3.org/2000/svg">
<g clip-path="url(#clip0_341_842)">
<path fill-rule="evenodd" clip-rule="evenodd" d="M13.9453 2.64844V9.56836C13.9453 10.4355 13.7402 11.2119 13.3301 11.8975C12.9199 12.583 12.3398 13.1221 11.5898 13.5146C10.8398 13.9072 9.97266 14.1035 8.98828 14.1035C8.00391 14.1035 7.13672 13.9072 6.38672 13.5146C5.63672 13.1221 5.05664 12.583 4.64648 11.8975C4.23633 11.2119 4.03125 10.4355 4.03125 9.56836V2.64844H5.61328V9.44531C5.61328 10.0547 5.75098 10.5996 6.02637 11.0801C6.30176 11.5605 6.69434 11.9385 7.2041 12.2139C7.71387 12.4893 8.30859 12.627 8.98828 12.627C9.67969 12.627 10.2803 12.4893 10.79 12.2139C11.2998 11.9385 11.6895 11.5605 11.959 11.0801C12.2285 10.5996 12.3633 10.0547 12.3633 9.44531V2.64844H13.9453ZM15.3516 18.249V19.4707H2.625V18.249H15.3516ZM14.25 15.75H3.75V16.5H14.25V15.75Z" fill="black"/>
</g>
<defs>
<clipPath id="clip0_341_842">
<rect width="18" height="18" fill="white"/>
</clipPath>
</defs>
</svg>
