<svg xmlns="http://www.w3.org/2000/svg" fill="none" viewBox="0 0 24 24" height="24" width="24"><g id="ai-generate-variation-spark--module-application-artificial-intelligence-ai"><g id="Group 631"><path id="Vector" stroke="#000" stroke-linecap="round" stroke-linejoin="round" d="M9.053057142857142 14.110217142857142H1.9394914285714284c-0.46219371428571426 0 -0.8368834285714285 0.3746914285714285 -0.8368834285714285 0.83688v7.113531428571428c0 0.46217142857142857 0.3746897142857143 0.8369142857142857 0.8368834285714285 0.8369142857142857h7.1135657142857145c0.46220571428571433 0 0.8368971428571428 -0.3747428571428571 0.8368971428571428 -0.8369142857142857V14.94709714285714c0 -0.46218857142857145 -0.3746914285714285 -0.83688 -0.8368971428571428 -0.83688Z" stroke-width="1"></path><path id="Vector_2" stroke="#000" stroke-linecap="round" stroke-linejoin="round" d="M22.06062857142857 14.110217142857142H14.946994285714284c-0.46220571428571433 0 -0.83688 0.3746914285714285 -0.83688 0.83688v7.113531428571428c0 0.46217142857142857 0.3746742857142857 0.8369142857142857 0.83688 0.8369142857142857h7.1136342857142845c0.46217142857142857 0 0.836742857142857 -0.3747428571428571 0.836742857142857 -0.8369142857142857V14.94709714285714c0 -0.46218857142857145 -0.37457142857142856 -0.83688 -0.836742857142857 -0.83688Z" stroke-width="1"></path><path id="Vector_3" stroke="#000" stroke-linecap="round" stroke-linejoin="round" d="M9.053057142857142 1.1023988571428571H1.9394914285714284c-0.46219371428571426 0 -0.8368834285714285 0.3746897142857143 -0.8368834285714285 0.8368868571428572v7.1135657142857145c0 0.46220571428571433 0.3746897142857143 0.8368971428571428 0.8368834285714285 0.8368971428571428h7.1135657142857145c0.46220571428571433 0 0.8368971428571428 -0.3746914285714285 0.8368971428571428 -0.8368971428571428V1.9392857142857143c0 -0.4621971428571428 -0.3746914285714285 -0.8368868571428572 -0.8368971428571428 -0.8368868571428572Z" stroke-width="1"></path><path id="Vector 2136" stroke="#000" stroke-linecap="round" stroke-linejoin="round" d="M13.963902857142855 6.144668571428571c-0.5152971428571429 -0.08964 -0.5152971428571429 -0.8293714285714285 0 -0.9190114285714285C15.83070857142857 4.900885714285714 17.315485714285714 3.478971428571428 17.720742857142856 1.6279577142857142l0.03102857142857143 -0.141888c0.11142857142857143 -0.509274857142857 0.8365714285714285 -0.5124445714285715 0.9524571428571428 -0.004162285714285714l0.03771428571428571 0.16535142857142857c0.42034285714285713 1.8422897142857144 1.9054285714285712 3.2521868571428567 3.7671428571428565 3.576049714285714 0.5178857142857142 0.09010285714285714 0.5178857142857142 0.8336057142857142 0 0.9237085714285714 -1.8617142857142857 0.32387999999999995 -3.3467999999999996 1.733777142857143 -3.7671428571428565 3.5760514285714287l-0.03771428571428571 0.16536c-0.11588571428571427 0.5082857142857142 -0.8410285714285713 0.5051142857142857 -0.9524571428571428 -0.004165714285714286l-0.03102857142857143 -0.14189142857142856c-0.4052571428571428 -1.851017142857143 -1.8900342857142856 -3.2729142857142857 -3.7568399999999995 -3.597702857142857Z" stroke-width="1"></path></g></g></svg>