<svg xmlns="http://www.w3.org/2000/svg" fill="none" viewBox="0 0 24 24" height="24" width="24"><g id="ascending-number-order"><path id="Vector 2" stroke="#000" stroke-linecap="round" stroke-linejoin="round" d="m19.142914285714287 0.8563062857142857 0 8.571425142857143" stroke-width="1"></path><path id="Vector 3" stroke="#000" stroke-linecap="round" stroke-linejoin="round" d="m16.28585142857143 2.99916 0.7142914285714285 0c1.1834571428571428 0 2.1427714285714283 -0.9593828571428571 2.1427714285714283 -2.1428537142857143v0" stroke-width="1"></path><path id="Vector 1" stroke="#000" stroke-linecap="round" stroke-linejoin="round" d="m22.000285714285713 9.427731428571429 -5.714297142857143 0" stroke-width="1"></path><path id="Vector 2_2" stroke="#000" stroke-linecap="round" stroke-linejoin="round" d="m17.866457142857143 19.017085714285713 1.1250857142857142 0c1.3460571428571428 0 2.4373714285714283 -1.0913142857142857 2.4373714285714283 -2.437542857142857 0 -1.3462114285714286 -1.0913142857142857 -2.4375085714285714 -2.4373714285714283 -2.4375085714285714l-1.1250857142857142 0.00001714285714285714c-1.346142857142857 0 -2.43744 1.0912971428571427 -2.43744 2.437491428571428 0 1.3462285714285713 1.0913142857142857 2.437542857142857 2.43744 2.437542857142857Z" stroke-width="1"></path><path id="Vector 3_2" stroke="#000" stroke-linecap="round" stroke-linejoin="round" d="m21.428742857142854 16.392017142857142 0 4.499982857142856c0 1.2426857142857142 -1.0073142857142856 2.25 -2.25 2.25h-1.5c-0.9795942857142856 0 -1.8130114285714285 -0.6260571428571429 -2.1218914285714283 -1.5" stroke-width="1"></path><path id="Vector 348" stroke="#000" stroke-linecap="round" stroke-linejoin="round" d="m10.285714285714285 18.857142857142858 -4.285714285714286 4.285714285714286L1.7142857142857142 18.857142857142858" stroke-width="1"></path><path id="Vector 349" stroke="#000" stroke-linecap="round" stroke-linejoin="round" d="M6 0.8571428571428571v22.285714285714285" stroke-width="1"></path></g></svg>