<svg xmlns="http://www.w3.org/2000/svg" fill="none" viewBox="0 0 24 24" height="24" width="24"><g id="bullet-list--points-bullet-unordered-list-lists-bullets"><path id="Vector" stroke="#000" stroke-linecap="round" stroke-linejoin="round" d="M1.7142857142857142 5.142857142857142c0.4733828571428571 0 0.8571428571428571 -0.38376 0.8571428571428571 -0.8571428571428571S2.1876685714285715 3.4285714285714284 1.7142857142857142 3.4285714285714284c-0.4733862857142857 0 -0.8571428571428571 0.38376 -0.8571428571428571 0.8571428571428571s0.3837565714285714 0.8571428571428571 0.8571428571428571 0.8571428571428571Z" stroke-width="1"></path><path id="Vector_2" stroke="#000" stroke-linecap="round" stroke-linejoin="round" d="M7.7142857142857135 4.285714285714286h15.428571428571427" stroke-width="1"></path><path id="Vector_3" stroke="#000" stroke-linecap="round" stroke-linejoin="round" d="M1.7142857142857142 12.857142857142856c0.4733828571428571 0 0.8571428571428571 -0.38376 0.8571428571428571 -0.8571428571428571s-0.38376 -0.8571428571428571 -0.8571428571428571 -0.8571428571428571c-0.4733862857142857 0 -0.8571428571428571 0.38376 -0.8571428571428571 0.8571428571428571s0.3837565714285714 0.8571428571428571 0.8571428571428571 0.8571428571428571Z" stroke-width="1"></path><path id="Vector_4" stroke="#000" stroke-linecap="round" stroke-linejoin="round" d="M7.7142857142857135 12h15.428571428571427" stroke-width="1"></path><path id="Vector_5" stroke="#000" stroke-linecap="round" stroke-linejoin="round" d="M1.7142857142857142 20.57142857142857c0.4733828571428571 0 0.8571428571428571 -0.3838285714285714 0.8571428571428571 -0.8571428571428571S2.1876685714285715 18.857142857142858 1.7142857142857142 18.857142857142858c-0.4733862857142857 0 -0.8571428571428571 0.3838285714285714 -0.8571428571428571 0.8571428571428571s0.3837565714285714 0.8571428571428571 0.8571428571428571 0.8571428571428571Z" stroke-width="1"></path><path id="Vector_6" stroke="#000" stroke-linecap="round" stroke-linejoin="round" d="M7.7142857142857135 19.71428571428571h15.428571428571427" stroke-width="1"></path></g></svg>