<svg width="24" height="24" viewBox="0 0 24 24" fill="none" xmlns="http://www.w3.org/2000/svg">
  <path d="M18.9261 2.75097C20.3415 2.35346 21.6465 3.65836 21.2489 5.07379L17.9882 16.6842C17.8106 17.3165 17.3163 17.8108 16.684 17.9884L5.07367 21.2491C3.65824 21.6465 2.35334 20.3417 2.75085 18.9263L6.01154 7.31585C6.18914 6.68347 6.68335 6.18926 7.31573 6.01166L18.9261 2.75097Z" stroke="black" stroke-width="1" stroke-linecap="round" stroke-linejoin="round"/>
  <path d="M9.75261 9.75264C9.45748 10.0478 9.22337 10.3981 9.06365 10.7837C8.90392 11.1694 8.82171 11.5826 8.82171 12C8.82171 12.4174 8.90392 12.8307 9.06365 13.2163C9.22337 13.6019 9.45748 13.9523 9.75261 14.2474C10.0477 14.5425 10.3981 14.7767 10.7837 14.9364C11.1693 15.0961 11.5826 15.1783 12 15.1783C12.4174 15.1783 12.8307 15.0961 13.2163 14.9364C13.6019 14.7767 13.9523 14.5425 14.2474 14.2474C14.8434 13.6514 15.1783 12.843 15.1783 12C15.1783 11.1571 14.8434 10.3487 14.2474 9.75264C13.6513 9.15659 12.8429 8.82174 12 8.82174C11.1571 8.82174 10.3487 9.15659 9.75261 9.75264Z" stroke="black" stroke-width="1" stroke-linecap="round" stroke-linejoin="round"/>
</svg>
