<svg xmlns="http://www.w3.org/2000/svg" fill="none" viewBox="0 0 24 24" height="24" width="24"><g id="copy-paste--clipboard-copy-cut-paste"><path id="Vector" stroke="#000" stroke-linecap="round" stroke-linejoin="round" d="M14.571428571428571 6v-1.7142857142857142c0 -0.45466285714285715 -0.18061714285714284 -0.8906914285714285 -0.5020971428571428 -1.2121885714285714C13.747834285714285 2.752045714285714 13.311805714285715 2.571428571428571 12.857142857142856 2.571428571428571h-1.7142857142857142" stroke-width="1"></path><path id="Vector_2" stroke="#000" stroke-linecap="round" stroke-linejoin="round" d="M6.857142857142857 18H2.571428571428571c-0.45466285714285715 0 -0.8906914285714285 -0.18068571428571426 -1.2121834285714286 -0.5021142857142856C1.0377548571428572 17.176457142857142 0.8571428571428571 16.74037714285714 0.8571428571428571 16.285714285714285v-12c0 -0.45466285714285715 0.180612 -0.8906914285714285 0.5021022857142857 -1.2121885714285714C1.6807371428571427 2.752045714285714 2.116765714285714 2.571428571428571 2.571428571428571 2.571428571428571h1.7142857142857142" stroke-width="1"></path><path id="Vector_3" stroke="#000" stroke-linecap="round" stroke-linejoin="round" d="M21.428571428571427 9.428571428571429h-8.571428571428571c-0.9467657142857142 0 -1.7142857142857142 0.76752 -1.7142857142857142 1.7142857142857142v10.285714285714285c0 0.9468 0.76752 1.7142857142857142 1.7142857142857142 1.7142857142857142h8.571428571428571c0.9468 0 1.7142857142857142 -0.7674857142857142 1.7142857142857142 -1.7142857142857142v-10.285714285714285c0 -0.9467657142857142 -0.7674857142857142 -1.7142857142857142 -1.7142857142857142 -1.7142857142857142Z" stroke-width="1"></path><path id="Vector_4" stroke="#000" stroke-linecap="round" stroke-linejoin="round" d="M11.571428571428571 0.8571428571428571h-7.7142857142857135l0.7028571428571427 2.777142857142857c0.04282285714285714 0.18588 0.14761714285714286 0.35165142857142856 0.2971714285714286 0.47003999999999996 0.1495542857142857 0.11838857142857141 0.3349371428571428 0.18236571428571427 0.5256857142857142 0.18138857142857143h4.662857142857143c0.1907485714285714 0.000977142857142857 0.37613142857142856 -0.06299999999999999 0.5256857142857142 -0.18138857142857143 0.1495542857142857 -0.11838857142857141 0.2543485714285714 -0.28415999999999997 0.2971714285714286 -0.47003999999999996L11.571428571428571 0.8571428571428571Z" stroke-width="1"></path><path id="Vector_5" stroke="#000" stroke-linecap="round" stroke-linejoin="round" d="M14.571428571428571 14.571428571428571h5.142857142857142" stroke-width="1"></path><path id="Vector_6" stroke="#000" stroke-linecap="round" stroke-linejoin="round" d="M14.571428571428571 18h5.142857142857142" stroke-width="1"></path></g></svg>