<svg xmlns="http://www.w3.org/2000/svg" fill="none" viewBox="0 0 24 24" height="24" width="24"><g id="dashboard-circle--app-application-dashboard-home-layout-circle"><path id="Vector" stroke="#000" stroke-linecap="round" stroke-linejoin="round" d="M5.571428571428571 10.285714285714285C8.175051428571427 10.285714285714285 10.285714285714285 8.175051428571427 10.285714285714285 5.571428571428571S8.175051428571427 0.8571428571428571 5.571428571428571 0.8571428571428571 0.8571428571428571 2.967805714285714 0.8571428571428571 5.571428571428571 2.967805714285714 10.285714285714285 5.571428571428571 10.285714285714285Z" stroke-width="1"></path><path id="Vector_2" stroke="#000" stroke-linecap="round" stroke-linejoin="round" d="M18.428571428571427 10.285714285714285c2.6036571428571427 0 4.714285714285714 -2.110662857142857 4.714285714285714 -4.714285714285714S21.032228571428572 0.8571428571428571 18.428571428571427 0.8571428571428571C15.824948571428571 0.8571428571428571 13.714285714285714 2.967805714285714 13.714285714285714 5.571428571428571S15.824948571428571 10.285714285714285 18.428571428571427 10.285714285714285Z" stroke-width="1"></path><path id="Vector_3" stroke="#000" stroke-linecap="round" stroke-linejoin="round" d="M5.571428571428571 23.142857142857142C8.175051428571427 23.142857142857142 10.285714285714285 21.032228571428572 10.285714285714285 18.428571428571427 10.285714285714285 15.824948571428571 8.175051428571427 13.714285714285714 5.571428571428571 13.714285714285714S0.8571428571428571 15.824948571428571 0.8571428571428571 18.428571428571427c0 2.6036571428571427 2.110662857142857 4.714285714285714 4.714285714285714 4.714285714285714Z" stroke-width="1"></path><path id="Vector_4" stroke="#000" stroke-linecap="round" stroke-linejoin="round" d="M18.428571428571427 23.142857142857142c2.6036571428571427 0 4.714285714285714 -2.1106285714285713 4.714285714285714 -4.714285714285714C23.142857142857142 15.824948571428571 21.032228571428572 13.714285714285714 18.428571428571427 13.714285714285714 15.824948571428571 13.714285714285714 13.714285714285714 15.824948571428571 13.714285714285714 18.428571428571427c0 2.6036571428571427 2.110662857142857 4.714285714285714 4.714285714285714 4.714285714285714Z" stroke-width="1"></path></g></svg>