<svg xmlns="http://www.w3.org/2000/svg" fill="none" viewBox="0 0 24 24" height="24" width="24"><g id="hand-held-tablet-writing--tablet-kindle-device-electronics-ipad-writing-digital-paper-notepad"><path id="Vector" stroke="#000" stroke-linecap="round" stroke-linejoin="round" d="M13.714285714285714 0.8571428571428571H2.571428571428571c-0.9467742857142857 0 -1.7142857142857142 0.7675114285714285 -1.7142857142857142 1.7142857142857142v18.857142857142858c0 0.9468 0.7675114285714285 1.7142857142857142 1.7142857142857142 1.7142857142857142h15.428571428571427c0.9468 0 1.7142857142857142 -0.7674857142857142 1.7142857142857142 -1.7142857142857142V13.714285714285714" stroke-width="1"></path><path id="Vector_2" stroke="#000" stroke-linecap="round" stroke-linejoin="round" d="M0.8571428571428571 18h18.857142857142858" stroke-width="1"></path><path id="Vector_3" stroke="#000" stroke-linecap="round" stroke-linejoin="round" d="M6 5.142857142857142h3.4285714285714284" stroke-width="1"></path><path id="Vector_4" stroke="#000" stroke-linecap="round" stroke-linejoin="round" d="M6 9.428571428571429h1.7142857142857142" stroke-width="1"></path><path id="Vector_5" stroke="#000" stroke-linecap="round" stroke-linejoin="round" d="m15.418525714285714 12.867085714285713 -5.142857142857142 0.9257142857142857 0.8571428571428571 -5.211428571428571L18.384171428571427 1.3642251428571428c0.15942857142857142 -0.16067657142857142 0.3490285714285714 -0.28820914285714283 0.5579999999999999 -0.3752417142857143C19.150971428571427 0.901950857142857 19.37502857142857 0.8571428571428571 19.601314285714285 0.8571428571428571c0.22645714285714283 0 0.45051428571428564 0.044808 0.6593142857142856 0.13184057142857142 0.20897142857142856 0.08703257142857143 0.3985714285714286 0.21456514285714284 0.5578285714285715 0.3752417142857143l1.8171428571428572 1.8171462857142857c0.16079999999999997 0.15936 0.2883428571428571 0.34896 0.37525714285714284 0.5578628571428571 0.08708571428571428 0.2089028571428571 0.1318285714285714 0.43297714285714284 0.1318285714285714 0.65928 0 0.2263028571428571 -0.04474285714285714 0.45037714285714286 -0.1318285714285714 0.6592628571428572 -0.08691428571428571 0.2089028571428571 -0.21445714285714282 0.39852 -0.37525714285714284 0.5578799999999999l-7.217074285714284 7.251428571428572Z" stroke-width="1"></path></g></svg>