<svg xmlns="http://www.w3.org/2000/svg" fill="none" viewBox="0 0 24 24" height="24" width="24"><g id="landscape-2--photos-photo-landscape-picture-photography-camera-pictures-image"><path id="Vector" stroke="#000" stroke-linecap="round" stroke-linejoin="round" d="m2.571428571428571 23.142857142857142 18.857142857142858 0c0.9468 0 1.7142857142857142 -0.7674857142857142 1.7142857142857142 -1.7142857142857142l0 -18.857142857142858c0 -0.9467742857142857 -0.7674857142857142 -1.7142857142857142 -1.7142857142857142 -1.7142857142857142l-18.857142857142858 0c-0.9467742857142857 0 -1.7142857142857142 0.7675114285714285 -1.7142857142857142 1.7142857142857142l0 18.857142857142858c0 0.9468 0.7675114285714285 1.7142857142857142 1.7142857142857142 1.7142857142857142Z" stroke-width="1"></path><path id="Vector_2" stroke="#000" stroke-linecap="round" stroke-linejoin="round" d="m3 23.142857142857142 12.514285714285712 -11.794354285714284c0.15401142857142858 -0.12827999999999998 0.34812 -0.19853142857142855 0.5485714285714286 -0.19853142857142855 0.2004342857142857 0 0.3945428571428571 0.07025142857142858 0.5485542857142857 0.19853142857142855l6.531445714285714 4.68" stroke-width="1"></path><path id="Vector_3" stroke="#000" stroke-linecap="round" stroke-linejoin="round" d="M7.7142857142857135 10.285714285714285C9.134451428571428 10.285714285714285 10.285714285714285 9.134451428571428 10.285714285714285 7.7142857142857135S9.134451428571428 5.142857142857142 7.7142857142857135 5.142857142857142 5.142857142857142 6.2941199999999995 5.142857142857142 7.7142857142857135 6.2941199999999995 10.285714285714285 7.7142857142857135 10.285714285714285Z" stroke-width="1"></path></g></svg>