<svg xmlns="http://www.w3.org/2000/svg" fill="none" viewBox="0 0 24 24" height="24" width="24"><g id="news-paper--newspaper-periodical-fold-content-entertainment"><path id="Vector" stroke="#000000" stroke-linecap="round" stroke-linejoin="round" d="M23.142857142857142 7.7142857142857135V18.857142857142858c0 0.5682857142857143 -0.22577142857142857 1.1134285714285712 -0.6275999999999999 1.5152571428571429 -0.4018285714285714 0.4018285714285714 -0.9469714285714286 0.6275999999999999 -1.5152571428571429 0.6275999999999999s-1.1134285714285712 -0.22577142857142857 -1.5152571428571429 -0.6275999999999999C19.082914285714285 19.97057142857143 18.857142857142858 19.425428571428572 18.857142857142858 18.857142857142858V3.8571428571428568c0 -0.22733142857142857 -0.09034285714285713 -0.4453542857142857 -0.25097142857142857 -0.6060857142857142 -0.16079999999999997 -0.16074857142857144 -0.37885714285714284 -0.2510571428571428 -0.6061714285714286 -0.2510571428571428H1.7142857142857142c-0.227328 0 -0.44534571428571423 0.09030857142857142 -0.6060908571428572 0.2510571428571428C0.947448 3.411788571428571 0.8571428571428571 3.6298114285714282 0.8571428571428571 3.8571428571428568v15.428571428571427c0 0.4546285714285714 0.180612 0.8907428571428571 0.5021022857142857 1.2121714285714285 0.321492 0.3214285714285714 0.7575205714285713 0.5021142857142856 1.2121834285714286 0.5021142857142856h18.428571428571427" stroke-width="1"></path><path id="Vector_2" stroke="#000000" stroke-linecap="round" stroke-linejoin="round" d="M13.714285714285714 7.285714285714286H6v4.285714285714286H13.714285714285714v-4.285714285714286Z" stroke-width="1"></path><path id="Vector_3" stroke="#000000" stroke-linecap="round" stroke-linejoin="round" d="M6 16.71428571428571H13.714285714285714" stroke-width="1"></path></g></svg>