<svg xmlns="http://www.w3.org/2000/svg" fill="none" viewBox="0 0 24 24" height="24" width="24"><g id="pencil--change-edit-modify-pencil-write-writing"><path id="Vector" stroke="#000" stroke-linecap="round" stroke-linejoin="round" d="M8.571428571428571 20.982857142857142 0.8571428571428571 23.142857142857142l2.1599999999999997 -7.714251428571428L17.142857142857142 1.3714645714285714c0.1596 -0.16327885714285714 0.3504 -0.29301428571428567 0.5607428571428571 -0.3815862857142857 0.2105142857142857 -0.08857371428571428 0.43662857142857137 -0.13419942857142858 0.6649714285714285 -0.13419942857142858 0.22834285714285715 0 0.45445714285714284 0.04562571428571428 0.6649714285714285 0.13419942857142858 0.21034285714285714 0.088572 0.40114285714285713 0.21830742857142854 0.5607428571428571 0.3815862857142857L22.628571428571426 4.422891428571429c0.16062857142857143 0.15936 0.2881714285714286 0.3489771428571428 0.37525714285714284 0.5578628571428571 0.08708571428571428 0.2089028571428571 0.1318285714285714 0.43297714285714284 0.1318285714285714 0.65928 0 0.2263028571428571 -0.04474285714285714 0.45037714285714286 -0.1318285714285714 0.65928 -0.08708571428571428 0.2089028571428571 -0.21462857142857142 0.3985028571428571 -0.37525714285714284 0.5578628571428571L8.571428571428571 20.982857142857142Z" stroke-width="1"></path></g></svg>