<svg xmlns="http://www.w3.org/2000/svg" fill="none" viewBox="0 0 24 24" height="24" width="24"><g id="share-link--share-transmit"><path id="Vector" stroke="#000" stroke-linecap="round" stroke-linejoin="round" d="M4.714285714285714 15.857142857142856C6.844525714285714 15.857142857142856 8.571428571428571 14.130239999999999 8.571428571428571 12S6.844525714285714 8.142857142857142 4.714285714285714 8.142857142857142 0.8571428571428571 9.86976 0.8571428571428571 12s1.726902857142857 3.8571428571428568 3.8571428571428568 3.8571428571428568Z" stroke-width="1"></path><path id="Vector_2" stroke="#000" stroke-linecap="round" stroke-linejoin="round" d="M19.285714285714285 23.142857142857142c2.1301714285714284 0 3.8571428571428568 -1.7269714285714286 3.8571428571428568 -3.8571428571428568S21.41588571428571 15.428571428571427 19.285714285714285 15.428571428571427 15.428571428571427 17.15554285714286 15.428571428571427 19.285714285714285s1.7269714285714286 3.8571428571428568 3.8571428571428568 3.8571428571428568Z" stroke-width="1"></path><path id="Vector_3" stroke="#000" stroke-linecap="round" stroke-linejoin="round" d="M19.285714285714285 8.571428571428571c2.1301714285714284 0 3.8571428571428568 -1.726902857142857 3.8571428571428568 -3.8571428571428568S21.41588571428571 0.8571428571428571 19.285714285714285 0.8571428571428571 15.428571428571427 2.5840457142857143 15.428571428571427 4.714285714285714 17.15554285714286 8.571428571428571 19.285714285714285 8.571428571428571Z" stroke-width="1"></path><path id="Vector_4" stroke="#000" stroke-linecap="round" stroke-linejoin="round" d="m8.160017142857143 10.285714285714285 7.680000000000001 -3.8571428571428568" stroke-width="1"></path><path id="Vector_5" stroke="#000" stroke-linecap="round" stroke-linejoin="round" d="m8.160017142857143 13.714285714285714 7.680000000000001 3.8571428571428568" stroke-width="1"></path></g></svg>