<svg xmlns="http://www.w3.org/2000/svg" fill="none" viewBox="0 0 24 24" height="24" width="24"><g id="user-circle-single--circle-geometric-human-person-single-user"><path id="Vector" stroke="#000" stroke-linecap="round" stroke-linejoin="round" d="M12 13.714285714285714c2.3669314285714287 0 4.285714285714286 -1.918782857142857 4.285714285714286 -4.285714285714286S14.366931428571428 5.142857142857142 12 5.142857142857142 7.7142857142857135 7.061640000000001 7.7142857142857135 9.428571428571429 9.633068571428572 13.714285714285714 12 13.714285714285714Z" stroke-width="1"></path><path id="Vector_2" stroke="#000" stroke-linecap="round" stroke-linejoin="round" d="M4.679965714285713 20.4c0.7649828571428572 -1.2557142857142858 1.8401314285714285 -2.293542857142857 3.1220742857142856 -3.013542857142857 1.281942857142857 -0.7202057142857142 2.7275657142857144 -1.0984457142857142 4.197925714285714 -1.0984457142857142 1.47036 0 2.9159828571428568 0.37823999999999997 4.197925714285714 1.0984457142857142 1.2819942857142856 0.72 2.357022857142857 1.7578285714285715 3.122108571428571 3.013542857142857" stroke-width="1"></path><path id="Vector_3" stroke="#000" stroke-linecap="round" stroke-linejoin="round" d="M12 23.142857142857142c6.154114285714286 0 11.142857142857142 -4.9887428571428565 11.142857142857142 -11.142857142857142C23.142857142857142 5.845971428571428 18.154114285714286 0.8571428571428571 12 0.8571428571428571 5.845971428571428 0.8571428571428571 0.8571428571428571 5.845971428571428 0.8571428571428571 12c0 6.154114285714286 4.988828571428571 11.142857142857142 11.142857142857142 11.142857142857142Z" stroke-width="1"></path></g></svg>