<svg xmlns="http://www.w3.org/2000/svg" fill="none" viewBox="0 0 24 24" height="24" width="24"><g id="vertical-slider-square--adjustment-adjust-controls-fader-vertical-settings-slider-square"><path id="Vector" stroke="#000" stroke-linecap="round" stroke-linejoin="round" d="m0.8571428571428571 2.571428571428571 0 18.857142857142858c0 0.9468 0.7675114285714285 1.7142857142857142 1.7142857142857142 1.7142857142857142h18.857142857142858c0.9468 0 1.7142857142857142 -0.7674857142857142 1.7142857142857142 -1.7142857142857142v-18.857142857142858c0 -0.9467742857142857 -0.7674857142857142 -1.7142857142857142 -1.7142857142857142 -1.7142857142857142h-18.857142857142858c-0.9467742857142857 0 -1.7142857142857142 0.7675114285714285 -1.7142857142857142 1.7142857142857142Z" stroke-width="1"></path><path id="Vector_2" stroke="#000" stroke-linecap="round" stroke-linejoin="round" d="M7.7142857142857135 18.857142857142858V10.285714285714285" stroke-width="1"></path><path id="Vector_3" stroke="#000" stroke-linecap="round" stroke-linejoin="round" d="M7.7142857142857135 10.285714285714285C9.134451428571428 10.285714285714285 10.285714285714285 9.134451428571428 10.285714285714285 7.7142857142857135S9.134451428571428 5.142857142857142 7.7142857142857135 5.142857142857142 5.142857142857142 6.2941199999999995 5.142857142857142 7.7142857142857135 6.2941199999999995 10.285714285714285 7.7142857142857135 10.285714285714285Z" stroke-width="1"></path><path id="Vector_4" stroke="#000" stroke-linecap="round" stroke-linejoin="round" d="M16.285714285714285 5.142857142857142v5.142857142857142" stroke-width="1"></path><path id="Vector_5" stroke="#000" stroke-linecap="round" stroke-linejoin="round" d="M16.285714285714285 15.428571428571427v3.4285714285714284" stroke-width="1"></path><path id="Vector_6" stroke="#000" stroke-linecap="round" stroke-linejoin="round" d="M16.285714285714285 15.428571428571427c1.4201142857142857 0 2.571428571428571 -1.1512628571428571 2.571428571428571 -2.571428571428571S17.705828571428572 10.285714285714285 16.285714285714285 10.285714285714285C14.865548571428569 10.285714285714285 13.714285714285714 11.436977142857142 13.714285714285714 12.857142857142856S14.865548571428569 15.428571428571427 16.285714285714285 15.428571428571427Z" stroke-width="1"></path></g></svg>