<svg xmlns="http://www.w3.org/2000/svg" fill="none" viewBox="0 0 24 24" height="24" width="24"><g id="visible--eye-eyeball-open-view"><path id="Vector" stroke="#000" stroke-linecap="round" stroke-linejoin="round" d="M22.68 10.707942857142855c0.28422857142857144 0.35437714285714284 0.4416 0.814782857142857 0.4416 1.29216s-0.15737142857142858 0.937782857142857 -0.4416 1.29216c-1.8 2.1793199999999997 -5.897194285714286 6.422194285714285 -10.680051428571428 6.422194285714285s-8.879999999999999 -4.242874285714286 -10.680003428571428 -6.422194285714285c-0.2842971428571428 -0.35437714285714284 -0.44166685714285714 -0.814782857142857 -0.44166685714285714 -1.29216s0.15736971428571428 -0.937782857142857 0.44166685714285714 -1.29216C3.1199485714285715 8.528622857142857 7.217091428571429 4.285714285714286 11.999948571428572 4.285714285714286S20.88 8.528622857142857 22.68 10.707942857142855Z" stroke-width="1"></path><path id="Vector_2" stroke="#000" stroke-linecap="round" stroke-linejoin="round" d="M12 15.428571428571427c1.8935485714285714 0 3.4285714285714284 -1.535022857142857 3.4285714285714284 -3.4285714285714284s-1.535022857142857 -3.4285714285714284 -3.4285714285714284 -3.4285714285714284 -3.4285714285714284 1.535022857142857 -3.4285714285714284 3.4285714285714284 1.535022857142857 3.4285714285714284 3.4285714285714284 3.4285714285714284Z" stroke-width="1"></path></g></svg>